HIERARCHY
ROOT Hips
{
	OFFSET 0.00000 0.00000 0.00000
	CHANNELS 6 Xposition Yposition Zposition Zrotation Yrotation Xrotation 
	JOINT LHipJoint
	{
		OFFSET 0 0 0
		CHANNELS 3 Zrotation Yrotation Xrotation
		JOINT LeftUpLeg
		{
			OFFSET 1.37590 -1.78394 0.89329
			CHANNELS 3 Zrotation Yrotation Xrotation
			JOINT LeftLeg
			{
				OFFSET 2.47928 -6.81178 0.00000
				CHANNELS 3 Zrotation Yrotation Xrotation
				JOINT LeftFoot
				{
					OFFSET 2.63345 -7.23535 0.00000
					CHANNELS 3 Zrotation Yrotation Xrotation
					JOINT LeftToeBase
					{
						OFFSET 0.23938 -0.65768 2.27012
						CHANNELS 3 Zrotation Yrotation Xrotation
						End Site
						{
							OFFSET 0.00000 -0.00000 1.18363
						}
					}
				}
			}
		}
	}
	JOINT RHipJoint
	{
		OFFSET 0 0 0
		CHANNELS 3 Zrotation Yrotation Xrotation
		JOINT RightUpLeg
		{
			OFFSET -1.33617 -1.78394 0.89329
			CHANNELS 3 Zrotation Yrotation Xrotation
			JOINT RightLeg
			{
				OFFSET -2.56922 -7.05888 0.00000
				CHANNELS 3 Zrotation Yrotation Xrotation
				JOINT RightFoot
				{
					OFFSET -2.56568 -7.04915 0.00000
					CHANNELS 3 Zrotation Yrotation Xrotation
					JOINT RightToeBase
					{
						OFFSET -0.27533 -0.75646 2.18105
						CHANNELS 3 Zrotation Yrotation Xrotation
						End Site
						{
							OFFSET -0.00000 -0.00000 1.15233
						}
					}
				}
			}
		}
	}
	JOINT LowerBack
	{
		OFFSET 0 0 0
		CHANNELS 3 Zrotation Yrotation Xrotation
		JOINT Spine
		{
			OFFSET 0.06190 2.15152 -0.00935
			CHANNELS 3 Zrotation Yrotation Xrotation
			JOINT Spine1
			{
				OFFSET 0.06334 2.15332 0.00872
				CHANNELS 3 Zrotation Yrotation Xrotation
				JOINT Neck
				{
					OFFSET 0 0 0
					CHANNELS 3 Zrotation Yrotation Xrotation
					JOINT Neck1
					{
						OFFSET -0.04202 1.66908 0.23524
						CHANNELS 3 Zrotation Yrotation Xrotation
						JOINT Head
						{
							OFFSET 0.07510 1.69357 -0.24440
							CHANNELS 3 Zrotation Yrotation Xrotation
							End Site
							{
								OFFSET 0.02556 1.71719 -0.11000
							}
						}
					}
				}
				JOINT LeftShoulder
				{
					OFFSET 0 0 0
					CHANNELS 3 Zrotation Yrotation Xrotation
					JOINT LeftArm
					{
						OFFSET 3.67168 1.26306 -0.41342
						CHANNELS 3 Zrotation Yrotation Xrotation
						JOINT LeftForeArm
						{
							OFFSET 4.68510 -0.00000 -0.00000
							CHANNELS 3 Zrotation Yrotation Xrotation
							JOINT LeftHand
							{
								OFFSET 3.39626 -0.00000 -0.00000
								CHANNELS 3 Zrotation Yrotation Xrotation
								JOINT LeftFingerBase
								{
									OFFSET 0 0 0
									CHANNELS 3 Zrotation Yrotation Xrotation
									JOINT LeftHandIndex1
									{
										OFFSET 0.48608 -0.00000 -0.00000
										CHANNELS 3 Zrotation Yrotation Xrotation
										End Site
										{
											OFFSET 0.39189 -0.00000 -0.00000
										}
									}
								}
								JOINT LThumb
								{
									OFFSET 0 0 0
									CHANNELS 3 Zrotation Yrotation Xrotation
									End Site
									{
										OFFSET 0.39787 -0.00000 0.39787
									}
								}
							}
						}
					}
				}
				JOINT RightShoulder
				{
					OFFSET 0 0 0
					CHANNELS 3 Zrotation Yrotation Xrotation
					JOINT RightArm
					{
						OFFSET -3.04136 1.42992 -0.76390
						CHANNELS 3 Zrotation Yrotation Xrotation
						JOINT RightForeArm
						{
							OFFSET -5.55576 -0.00000 -0.00000
							CHANNELS 3 Zrotation Yrotation Xrotation
							JOINT RightHand
							{
								OFFSET -3.32774 -0.00000 -0.00000
								CHANNELS 3 Zrotation Yrotation Xrotation
								JOINT RightFingerBase
								{
									OFFSET 0 0 0
									CHANNELS 3 Zrotation Yrotation Xrotation
									JOINT RightHandIndex1
									{
										OFFSET -0.50763 -0.00000 -0.00000
										CHANNELS 3 Zrotation Yrotation Xrotation
										End Site
										{
											OFFSET -0.40926 -0.00000 -0.00000
										}
									}
								}
								JOINT RThumb
								{
									OFFSET 0 0 0
									CHANNELS 3 Zrotation Yrotation Xrotation
									End Site
									{
										OFFSET -0.41551 -0.00000 0.41551
									}
								}
							}
						}
					}
				}
			}
		}
	}
}
MOTION
Frames: 6
Frame Time: 0.0454545
0.00 0.00 0.00 332.3230 -83.0873 -324.8220 0.0000 0.0000 0.0000 -14.4486 -6.2922 4.6816 2.9176 10.5604 30.8112 -0.0697 -4.9336 0.1262 2.4174 -9.6861 -27.9662 0.0000 0.0000 0.0000 18.8069 10.5312 -29.2041 -1.6424 -8.0778 22.9506 0.3097 -9.8686 -2.4776 -0.6023 -4.9677 13.8164 0.6591 -0.3529 -0.2804 2.1501 -0.4597 -2.3830 1.8457 -0.2349 -2.2739 -7.3487 -4.0949 -15.9173 -0.5844 -3.8563 9.6291 0.6224 -2.2160 5.6357 -0.0000 0.0000 0.0000 -88.0160 2.6554 -16.4694 6.4226 -10.9651 -0.6171 -0.0000 -0.0000 55.2563 16.0177 24.1734 6.7049 -7.1250 0.0000 -0.0000 -14.1188 54.4536 -3.3297 -0.0000 0.0000 0.0000 87.5212 4.7012 23.9480 -12.7192 20.8744 -2.3523 0.0000 0.0000 2.4014 -15.5289 -32.7941 8.5587 7.1250 -0.0000 -0.0000 20.3689 -62.6120 -8.9105
0.00 0.00 0.00 316.5390 -80.2320 -309.3260 0.0000 0.0000 0.0000 -9.1073 -8.2478 -3.7359 6.1765 14.5972 45.6861 0.7725 -0.1660 16.6728 0.4668 -4.3824 -12.1550 0.0000 0.0000 0.0000 25.1776 10.7401 -23.5736 -1.5930 -7.9612 22.5961 0.2550 -9.2816 -6.1772 -0.8356 -5.8314 16.2960 3.6962 -0.5661 -0.2019 3.5163 -0.7275 -2.2862 1.5577 -0.4307 -2.2363 -7.4518 -4.5860 -15.4992 0.4044 -4.6469 10.0062 0.8788 -2.5317 5.7374 0.0000 0.0000 0.0000 -88.9927 12.3735 -32.8321 5.7750 -9.8863 -0.4999 -0.0000 -0.0000 65.5701 7.1854 23.6984 2.9007 -7.1250 0.0000 -0.0000 -22.5027 52.4128 -4.2823 0.0000 0.0000 0.0000 87.1426 -2.3654 -1.9468 -7.1019 12.0869 -0.7528 0.0000 0.0000 22.0195 -15.4167 -33.3650 8.6237 7.1250 -0.0000 -0.0000 21.0135 -63.1106 -9.4519
0.00 0.00 0.00 311.6510 -78.7494 -305.3820 0.0000 0.0000 0.0000 -6.0554 -9.4781 -18.9363 10.7754 17.8234 62.0502 0.0193 -1.7013 3.8072 0.5198 -4.6207 -12.8297 0.0000 0.0000 0.0000 30.3545 8.0982 -12.5037 -0.9744 -6.2840 17.6107 0.0856 -8.9088 -10.9586 -0.7063 -5.3714 14.9708 5.0610 0.5281 -0.1400 4.2318 0.6882 -1.4253 1.5099 0.2688 -1.3788 -8.9616 -6.5439 -14.3667 2.7684 -7.3969 10.7970 1.5984 -3.7600 6.0560 0.0000 -0.0000 0.0000 -89.2287 22.1408 -23.0700 7.4497 -12.6569 -0.8274 -0.0000 -0.0000 49.0418 -1.6849 20.5514 -0.5916 -7.1250 0.0000 -0.0000 -28.9060 48.2094 -2.4835 0.0000 -0.0000 0.0000 85.0495 -16.7519 -12.2777 -7.3526 12.4981 -0.8062 0.0000 0.0000 22.6473 -10.1332 -30.7499 5.2212 7.1250 -0.0000 -0.0000 24.3382 -59.4382 -8.9052
0.00 0.00 0.00 271.2660 -82.8114 -264.4790 0.0000 0.0000 0.0000 -4.0534 -14.9068 -31.9225 1.6571 8.1119 23.0545 -0.0112 2.4470 0.7847 0.2080 -2.9363 -8.1015 0.0000 0.0000 0.0000 30.2869 3.6090 3.2782 -3.2736 -11.1254 32.7039 -0.6637 -3.1804 -16.8684 -0.6771 5.2614 -14.6556 5.1210 2.1527 -0.2960 2.0350 2.8742 -1.5008 -0.7922 1.3698 -1.2300 -8.3167 -6.3100 -11.9824 2.8241 -7.4401 10.5054 1.5843 -3.7748 5.5483 -0.0000 0.0000 0.0000 -90.8387 8.2297 11.0651 16.8636 -26.6776 -4.0259 -0.0000 -0.0000 15.8910 15.6342 19.0442 5.2174 -7.1250 0.0000 -0.0000 -12.3730 49.2967 -1.3293 -0.0000 0.0000 0.0000 84.9536 -1.8498 13.6117 -17.4695 27.4726 -4.3017 0.0000 -0.0000 -0.1401 -12.5360 -27.1662 5.7969 7.1250 -0.0000 -0.0000 19.3019 -56.6508 -5.6585
0.00 0.00 0.00 259.6430 -83.9738 -254.6510 0.0000 0.0000 0.0000 -7.8647 -14.5267 -28.1434 2.3280 9.5182 27.4302 -0.0012 1.2303 -1.5843 0.0098 -0.6388 -1.7553 0.0000 0.0000 0.0000 26.9124 3.0989 -1.9748 -6.4061 -14.8106 46.5905 0.1817 -7.5407 -2.4336 -0.1490 2.4872 -6.8542 4.2840 1.8734 -0.0357 1.8907 2.5191 -1.4763 -0.4841 1.2023 -1.3964 -7.7853 -5.9263 -11.6508 2.1772 -6.9809 11.3718 1.3406 -3.5929 5.6982 0.0000 0.0000 0.0000 -90.7317 3.7514 19.5701 19.9804 -30.6187 -5.5214 -0.0000 -0.0000 13.4257 12.5430 18.8009 4.1012 -7.1250 0.0000 -0.0000 -15.1941 48.6012 -1.3790 0.0000 0.0000 0.0000 85.7096 1.2657 17.5696 -22.2070 33.2102 -6.6989 0.0000 -0.0000 -3.7099 -13.3753 -27.4723 6.2598 7.1250 -0.0000 -0.0000 18.6408 -57.1144 -5.6662
0.00 0.00 0.00 228.7730 -86.2261 -225.9030 0.0000 0.0000 0.0000 -14.4929 -12.4348 -21.0752 2.4707 9.7844 28.2815 0.1381 0.1435 -7.0727 0.0192 -0.8955 -2.4614 0.0000 0.0000 0.0000 21.2385 2.4379 -11.4144 -10.9167 -17.8941 62.5106 0.5587 -17.7345 6.2855 -0.2591 -3.2750 9.0454 1.5851 1.2968 0.2700 1.6355 1.7502 -1.4728 0.7582 0.8558 -1.6638 -7.2227 -5.5529 -11.9057 1.4010 -6.4842 13.0873 1.0262 -3.4127 6.2155 -0.0000 -0.0000 0.0000 -87.8753 -2.3370 29.6873 29.0969 -40.1066 -10.8231 -0.0000 -0.0000 11.9553 8.3622 15.0281 2.1827 -7.1250 0.0000 -0.0000 -17.6516 44.4134 0.2641 -0.0000 -0.0000 0.0000 83.6242 5.4090 20.9697 -32.5993 43.0198 -13.1479 0.0000 -0.0000 -6.3660 -14.3917 -26.1606 6.4546 7.1250 -0.0000 -0.0000 16.8130 -56.0701 -4.6588
